<svg fill="none" height="171" viewBox="0 0 177 127" width="233" xmlns="http://www.w3.org/2000/svg"><g clip-rule="evenodd" fill="#ef3340" fill-rule="evenodd"><path d="m63.5016 32.6714c-3.1996 0-5.4287 2.2805-5.9176 5.092h11.7805c-.7588-3.3959-2.7144-5.092-5.8629-5.092z"/><path d="m153.093 52.0273c-1.792 1.7496-4.126 2.5977-7.001 2.5977-2.609 0-4.889-.7412-6.79-2.1737-1.901-1.4324-3.258-3.1286-4.071-5.0385l5.374-2.808c1.087 2.9149 2.933 4.3972 5.487 4.3972 2.222 0 3.363-.955 3.363-2.8614 0-.848-.434-1.5358-1.466-2.0132-.489-.2673-1.033-.4811-1.518-.6379-.927-.424-2.827-1.0084-3.856-1.4324-3.473-1.4325-5.538-3.3923-5.538-7.2123 0-2.1736.817-3.9731 2.444-5.5124 1.627-1.5394 3.747-2.2806 6.297-2.2806 3.637 0 6.841 1.7496 8.577 4.3473l-4.017 3.6061c-1.247-1.5358-2.765-2.334-4.56-2.334-1.357 0-2.495.7982-2.495 2.2271 0 1.1153.868 1.9634 2.604 2.5977l1.956.6913 2.331.7946c.438.1603 1.087.5309 1.956 1.0084.923.4775 1.572.9015 1.955 1.379.814.9016 1.682 2.4908 1.682 4.3473 0 2.4908-.923 4.5611-2.714 6.3107zm-22.861 2.1736h-6.731v-4.2974c-2.229 3.1286-5.053 4.7215-8.471 4.7215-5.05 0-8.413-2.8115-8.413-8.0603v-19.0888h6.731v17.1254c0 2.9184 1.302 4.4043 3.907 4.4043 3.477 0 6.246-4.1371 6.246-10.8718v-10.6579h6.731zm-32.1963-2.1736c-1.7913 1.7496-4.1299 2.5977-7.0048 2.5977-2.6049 0-4.8851-.7412-6.7859-2.1737-1.9008-1.4324-3.258-3.1286-4.0716-5.0385l5.3741-2.808c1.0835 2.9149 2.9332 4.3972 5.4834 4.3972 2.2255 0 3.3674-.955 3.3674-2.8614 0-.848-.4378-1.5358-1.4666-2.0132-.4889-.2673-1.0325-.4811-1.5214-.6379-.923-.424-2.8238-1.0084-3.8526-1.4324-3.4769-1.4325-5.5382-3.3923-5.5382-7.2123 0-2.1736.8136-3.9731 2.4408-5.5124 1.6271-1.5394 3.7468-2.2806 6.297-2.2806 3.641 0 6.8443 1.7496 8.5809 4.3473l-4.0205 3.6061c-1.2477-1.5358-2.7654-2.334-4.5604-2.334-1.3572 0-2.4955.7982-2.4955 2.2271 0 1.1153.8683 1.9634 2.6049 2.5977l1.9556.6913 2.3349.7946c.4341.1603 1.0872.5309 1.9555 1.0084.923.4775 1.5724.9015 1.9519 1.379.8172.9016 1.6814 2.4908 1.6814 4.3473 0 2.4908-.9226 4.5611-2.7103 6.3107zm-21.7769-9.0687h-18.84c.1641 3.2319 2.5538 6.0434 6.4612 6.0434 2.7691 0 4.9982-1.379 6.6253-4.1335l5.4288 1.9634c-2.3386 5.1954-6.4612 7.7931-12.4336 7.7931-9.3908 0-13.1413-7.4225-13.1413-13.7866s3.7505-13.7866 13.1413-13.7866c4.3416 0 7.8732 1.7496 9.8287 4.4542 1.9518 2.5977 2.9296 5.7263 2.9296 8.748zm-32.0361-1.8031c0 9.5997-4.2321 13.4695-12.1052 13.4695-6.567 0-10.9122-3.6061-11.7294-9.5997l6.9537-1.4324c.5947 3.1321 2.2219 4.6679 4.7757 4.6679 3.258 0 5.0493-1.6961 5.0493-6.3605v-24.8187h7.0559zm123.2523-40.67552h-158.75429c-4.71366 0-8.537116 3.73082-8.537116 8.33822v63.7945c0 3.738 2.550186 7.0234 6.235016 8.0282l165.49939 45.2971c2.058.563 4.094-.948 4.094-3.032v-114.0878c0-4.6074-3.82-8.33822-8.537-8.33822z"/></g></svg>