<svg fill="none" height="59" viewBox="0 0 541 59" width="541" xmlns="http://www.w3.org/2000/svg"><path clip-rule="evenodd" d="m50.2208 13.1579c-10.9415 0-15.3067 8.854-15.3067 16.4437 0 7.5916 4.3652 16.4436 15.3067 16.4436 6.9585 0 11.7628-3.099 14.4835-9.295l-6.3214-2.3423c-1.8994 3.2891-4.4927 4.9336-7.7191 4.9336-4.5534 0-7.3368-3.3538-7.525-7.2094h21.9458v-3.2244c0-3.6067-1.1389-7.3368-3.4146-10.4378-2.2777-3.2244-6.3881-5.312-11.4492-5.312zm-6.8919 12.7763c.5665-3.3519 3.1618-6.0726 6.8919-6.0726 3.6694 0 5.9471 2.0249 6.8311 6.0726zm-23.7824 4.9336c0 5.5649-2.0895 7.5878-5.8824 7.5878-2.9735 0-4.87287-1.8328-5.56676-5.5669l-8.09734 1.7093c.948709 7.1447 6.00978 11.4492 13.6641 11.4492 9.1696 0 14.1013-4.6181 14.1013-16.0654v-28.71407h-8.2189zm100.5695-4.4926c0 8.0326-3.225 12.9683-7.275 12.9683-3.036 0-4.553-1.77-4.553-5.2532v-20.4267h-7.841v22.7691c0 6.2607 3.921 9.6145 9.803 9.6145 3.983 0 7.272-1.9013 9.866-5.6315v5.1238h7.842v-31.8759h-7.842zm33.398 2.2149c-1.009-.5684-1.772-1.0134-2.277-1.2015l-2.719-.9507-2.278-.8233c-2.023-.7566-3.034-1.768-3.034-3.097 0-1.7073 1.329-2.6579 2.907-2.6579 2.089 0 3.859.9506 5.314 2.7853l4.681-4.3005c-2.023-3.101-5.757-5.1866-9.995-5.1866-2.972 0-5.439.886-7.333 2.7207-1.897 1.8328-2.85 3.9811-2.85 6.5763 0 4.5514 2.405 6.8938 6.453 8.6011 1.199.5057 3.414 1.2035 4.492 1.7073.567.1882 1.2.441 1.768.7605 1.204.5665 1.708 1.3917 1.708 2.4012 0 2.2757-1.329 3.4165-3.919 3.4165-2.973 0-5.123-1.77-6.39-5.2512l-6.258 3.3518c.944 2.2777 2.526 4.3006 4.739 6.0118 2.215 1.7073 4.873 2.5933 7.909 2.5933 3.352 0 6.073-1.0154 8.159-3.101 2.083-2.0855 3.159-4.5534 3.159-7.5269 0-2.215-1.009-4.1104-1.96-5.1866-.443-.5684-1.199-1.0741-2.276-1.6426zm-64.1394 0c-1.0114-.5684-1.77-1.0134-2.2776-1.2015l-2.7168-.9507-2.2777-.8233c-2.0248-.7566-3.0363-1.768-3.0363-3.097 0-1.7073 1.329-2.6579 2.9069-2.6579 2.0896 0 3.8596.9506 5.314 2.7853l4.6808-4.3005c-2.0229-3.101-5.755-5.1866-9.9948-5.1866-2.9696 0-5.4374.886-7.3328 2.7207-1.8994 1.8328-2.8481 3.9811-2.8481 6.5763 0 4.5514 2.4031 6.8938 6.4528 8.6011 1.2015.5057 3.4145 1.2035 4.4907 1.7073.5664.1882 1.2015.441 1.768.7605 1.2035.5665 1.7093 1.3917 1.7093 2.4012 0 2.2757-1.329 3.4165-3.9203 3.4165-2.9755 0-5.1239-1.77-6.3881-5.2512l-6.2607 3.3518c.9487 2.2777 2.5285 4.3006 4.7435 6.0118 2.213 1.7073 4.869 2.5933 7.9053 2.5933 3.3498 0 6.0705-1.0154 8.1581-3.101 2.0856-2.0855 3.1617-4.5534 3.1617-7.5269 0-2.215-1.0115-4.1104-1.9602-5.1866-.4449-.5684-1.2015-1.0741-2.2777-1.6426zm91.7664 16.9474h8.222v-18.9722h15.938v-7.5897h-15.938v-10.11821h19.796v-7.59164h-28.018zm35.21-44.23451c-1.735 1.73473-1.735 4.64555 0 6.38027 1.736 1.73669 4.645 1.73669 6.38 0 1.737-1.73472 1.737-4.64554 0-6.38027-1.735-1.734727-4.644-1.734727-6.38 0zm-.731 44.23851h7.842v-31.8759h-7.842zm16.441-.002h7.841v-44.775538h-7.841zm51.799-32.3816c-4.046 0-7.272 2.213-9.738 6.5763-1.327-4.3633-4.806-6.5763-8.919-6.5763-3.602 0-6.703 1.8975-9.169 5.6276v-5.1219h-7.843v31.8759h7.843v-11.7001c0-9.1088 2.846-13.9778 6.894-13.9778 2.591 0 3.92 1.4564 3.92 4.428v21.2499h7.844v-12.3959c0-8.6012 2.843-13.282 6.89-13.282 2.596 0 3.925 1.4564 3.925 4.428v21.2499h7.842v-22.5789c0-6.1333-3.607-9.8027-9.489-9.8027zm165.111-.0019c-10.942 0-15.305 8.8539-15.305 16.4416 0 7.5936 4.363 16.4476 15.305 16.4476 6.956 0 11.764-3.099 14.481-9.2969l-6.323-2.3424c-1.898 3.2891-4.491 4.9317-7.715 4.9317-4.554 0-7.337-3.3499-7.529-7.2074h21.947v-3.2245c0-3.6066-1.138-7.3368-3.414-10.4358-2.278-3.2283-6.39-5.3139-11.447-5.3139zm-6.894 12.7782c.57-3.3519 3.163-6.0745 6.894-6.0745 3.667 0 5.943 2.0248 6.831 6.0745zm78.492 13.4054c-2.786 0-4.177-1.3917-4.177-5.1866v-13.7857h8.415v-6.7056h-8.415v-12.899712l-7.839 4.931732v7.96798h-4.934v6.7056h4.934v13.9131c0 7.7779 4.363 11.7648 11.698 11.7648 1.837 0 3.542-.3822 5.187-1.1408l-1.835-6.3254c-.949.5077-1.96.7606-3.034.7606zm-185.308-38.07385h-16.695v44.27175h8.219v-17.3276h8.476c9.046 0 13.85-5.3767 13.85-13.4741 0-8.09535-4.804-13.47005-13.85-13.47005zm-.318 19.35445h-8.158v-11.76281h8.158c3.86 0 5.82 1.95821 5.82 5.87841 0 3.9242-1.96 5.8844-5.82 5.8844zm149.779-.7605c3.224 0 5.755 1.7719 7.46 5.2473l7.021-2.8422c-2.468-6.0745-7.272-9.1088-14.481-9.1088-4.999 0-8.792 1.5818-11.512 4.6808-2.721 3.099-4.048 7.0212-4.048 11.7608 0 4.7456 1.327 8.6678 4.048 11.7668 2.72 3.097 6.513 4.6808 11.512 4.6808 7.209 0 12.013-3.0363 14.481-9.1088l-7.021-2.8481c-1.705 3.4832-4.236 5.2532-7.46 5.2532-4.809 0-7.339-3.9242-7.339-9.7439 0-5.8177 2.53-9.7379 7.339-9.7379zm-64.285-18.55866c-1.737 1.73473-1.737 4.64552 0 6.38025 1.735 1.73669 4.643 1.73669 6.38 0 1.735-1.73473 1.735-4.64552 0-6.38025-1.737-1.734722-4.645-1.734722-6.38 0zm-.731 41.51776c0 5.6276-2.403 7.968-7.4 9.2343l1.896 6.8899c9.106-2.0837 13.346-7.1448 13.346-17.0748v-28.2065h-7.842zm-56.801-23.9706v-5.1865h-7.845v31.8758h7.845v-11.3198c0-9.6772 3.542-14.0405 8.536-14.0405 1.204 0 2.34.3156 3.289.8821l1.455-7.2702c-1.392-.443-2.656-.6331-3.856-.6331-3.734 0-7.147 2.0875-9.424 5.6922zm45.038-1.0114c-2.911-3.099-6.829-4.6808-11.83-4.6808-4.996 0-8.914 1.5818-11.823 4.6808s-4.365 7.0193-4.365 11.7628c0 4.7455 1.456 8.7285 4.365 11.8275 2.909 3.097 6.827 4.6161 11.823 4.6161 5.001 0 8.919-1.5191 11.83-4.6161 2.907-3.099 4.363-7.082 4.363-11.8275 0-4.7435-1.456-8.6638-4.363-11.7628zm-6.01 18.7213c-1.454 1.8347-3.35 2.7815-5.82 2.7815-2.463 0-4.363-.9468-5.817-2.7815-1.455-1.8993-2.151-4.2378-2.151-6.9585s.696-5.0572 2.151-6.8919c1.454-1.8993 3.354-2.85 5.817-2.85 2.47 0 4.366.9507 5.82 2.85 1.456 1.8347 2.15 4.1712 2.15 6.8919s-.694 5.0592-2.15 6.9585zm132.792-35.42562c-3.526-.05097-6.324 2.84612-6.273 6.45474-.051 3.62628 2.747 6.52138 6.273 6.45668 3.526.0647 6.323-2.8304 6.274-6.45668.049-3.60862-2.748-6.50571-6.274-6.45474zm0 11.65302c-2.928 0-4.981-2.2345-4.981-5.19828 0-2.96177 2.053-5.19634 4.981-5.19634 2.93 0 4.983 2.23457 4.983 5.19634 0 2.96378-2.053 5.19828-4.983 5.19828zm2.401-6.70368c0-1.24273-.829-2.02091-2.234-2.02091h-2.533v7.00359h1.225v-2.96373h.745l1.968 2.96373h1.309l-2.019-3.03037c.91-.19797 1.539-.90951 1.539-1.95231zm-3.542.97616v-1.95231h1.241c.729 0 1.094.36459 1.094.97615 0 .61353-.365.97616-1.094.97616z" fill="#000" fill-rule="evenodd"/></svg>