<svg height="298.18668" viewBox="0 0 480 298.18668" width="480" xmlns="http://www.w3.org/2000/svg"><g transform="matrix(.13333333 0 0 -.13333333 0 298.18667)"><g fill="#34393e"><path d="m772.355 241.422c-90.539-102.852-186.808-150.7501-302.968-150.7501-206.914 0-375.2776 174.5001-375.2776 389.0271v3.449c0 216.231 164.0746 385.602 373.5356 385.602 114.535 0 209.882-44.828 300.109-141.102l19.148-20.437 67.043 62.527-19.414 20.543c-78.867 83.641-183.972 169.129-365.144 169.129-127.492 0-246.328-50.332-334.59-141.738-86.9259-90.012-134.797-209.422-134.797-336.231v-3.472c0-263.547 209.797-477.9572812 467.645-477.9572812 147.257 0 269.257 59.0077812 373 180.4882812l17.421 20.418-66.613 62.242z"/><path d="m1119.88 774.16v164.578h-92.41v-918.0661h92.41v474.5781c0 155.949 121.11 373.5 318.4 373.5h36.7v90.422l-31.41.25c-147.01 0-257.73-81.672-323.69-185.262"/><path d="m2273.38 938.719v-512.457c0-213.274-109.76-335.5901-301.14-335.5901-191.37 0-301.16 122.3161-301.16 335.5901v512.457h-92.37v-515.91c0-260.809 149.46-422.7972812 390.09-422.7972812h6.9c240.6 0 390.05 161.9882812 390.05 422.7972812v515.91z"/></g><path d="m2980.99 2235.31v-615.81h619.01v-89.63h-708.62v706.51z" fill="#55c7de"/><path d="m2691 1619.5v433.35l89.69-.25v-522.73h-530.11v89.63z" fill="#3978c5"/><path d="m3417.18 1419.54v-89.69h-436.19v-868.819h-89.61v958.509z" fill="#f68b11"/><path d="m2780.71 1419.54v-461.06l-.02-251.011h-89.69v622.401h-620.51v89.67z" fill="#facd09"/><path d="m3146.58 498.191c6.96.118 10.44 3.239 10.44 8.399 0 5.519-3.48 8.039-10.8 8.039-.12 0-7.2 0-7.2 0v-16.668zm-7.43-20.621h-6.01v42.45h13.68c10.67 0 16.2-4.911 16.2-13.071 0-6.238-3.37-10.32-8.4-12.23l10.67-17.149h-6.96l-9.72 15.7-9.46-.481zm8.15 56.84c-19.78 0-35.74-16.43-35.74-36.101 0-19.668 15.96-35.848 35.74-35.848 19.79 0 35.74 16.18 35.74 35.848 0 19.671-15.95 36.101-35.74 36.101zm-39.22-36.101c0 21.711 17.52 39.339 39.22 39.339 21.71 0 39.22-17.628 39.22-39.339 0-21.579-17.51-39.219-39.22-39.219-21.7 0-39.22 17.64-39.22 39.219" fill="#34393e"/></g></svg>