<svg fill="none" height="61" viewBox="0 0 61 61" width="61" xmlns="http://www.w3.org/2000/svg"><g fill="#ee3441"><path d="m21.0243 16.4906c.1535-.9063.8549-1.641 1.8632-1.641.9917 0 1.6069.5472 1.8465 1.641zm1.8632-3.4535c-2.9576 0-4.1375 2.3938-4.1375 4.4452 0 2.0513 1.1799 4.4444 4.1375 4.4444 1.8806 0 3.1792-.8375 3.9146-2.5125l-1.709-.6326c-.5125.8882-1.2139 1.3333-2.0862 1.3333-1.2305 0-1.9826-.907-2.034-1.9493h5.932v-.8715c0-.9744-.3077-1.9827-.923-2.8209-.6159-.8715-1.727-1.4361-3.0944-1.4361z"/><path d="m13.0681 21.9179c2.4784 0 3.8118-1.2479 3.8118-4.3423v-7.76115h-2.2216v8.00065c0 1.5042-.5646 2.0514-1.5902 2.0514-.8042 0-1.3167-.4958-1.5049-1.5048l-2.1882.4618c.25625 1.9312 1.6243 3.0944 3.6931 3.0944z"/><path d="m41.6448 21.7819h2.1201v-8.6166h-2.1201v3.4361c0 2.1715-.8715 3.5049-1.966 3.5049-.8208 0-1.2312-.4785-1.2312-1.4195v-5.5215h-2.1195v6.1541c0 1.6931 1.0604 2.5987 2.65 2.5987 1.0764 0 1.966-.5132 2.6667-1.5216z"/><path d="m49.8646 17.2093c-.2729-.1541-.4785-.2743-.616-.325l-.734-.2569-.616-.2222c-.5472-.2049-.8201-.4785-.8201-.8375 0-.4611.359-.7181.7861-.7181.5646 0 1.043.257 1.4361.7528l1.2653-1.1625c-.5473-.8382-1.5563-1.4028-2.7014-1.4028-.8042 0-1.4709.2403-1.9827.7361-.5132.4959-.7708 1.0764-.7708 1.7771 0 1.2313.6507 1.8639 1.7445 2.3257.3243.1361.9229.325 1.2145.4611.1535.0507.3243.1195.4778.2056.325.1534.4618.3757.4618.6486 0 .6159-.3597.9243-1.0597.9243-.8035 0-1.3847-.4792-1.7271-1.4195l-1.6917.9056c.2556.616.6834 1.1625 1.282 1.625.5979.4611 1.316.7007 2.1368.7007.9062 0 1.6417-.2743 2.2049-.8375.5638-.5646.8548-1.2313.8548-2.0347 0-.5986-.2729-1.1111-.5298-1.4014-.1202-.1542-.325-.291-.6153-.4445z"/><path d="m31.5437 20.1149c-.8041 0-1.3854-.4785-1.727-1.4195l-1.6917.9063c.2562.6153.6833 1.1625 1.2819 1.625.5987.4611 1.316.7 2.1368.7.9056 0 1.641-.2736 2.2056-.8375.5639-.5639.8542-1.2306.8542-2.034 0-.5993-.2736-1.1118-.5299-1.4021-.1201-.1542-.3243-.291-.6153-.4445-.2736-.1534-.4791-.2736-.6152-.3243l-.7355-.2569-.6152-.2229c-.5473-.2049-.8209-.4778-.8209-.8375 0-.4611.3591-.7181.7861-.7181.5646 0 1.0431.257 1.4361.7528l1.2653-1.1625c-.5465-.8382-1.5555-1.4021-2.7014-1.4021-.8027 0-1.4701.2396-1.9826.7354-.5132.4959-.7694 1.0764-.7694 1.7778 0 1.2306.65 1.8632 1.7437 2.325.3257.1368.9229.325 1.2139.4611.1542.0514.325.1195.4785.2056.325.1534.4618.3757.4618.6493 0 .616-.3591.9236-1.0598.9236z"/><path d="m42.5187 36.8449v-.5278h.3355c.1972 0 .2958.0986.2958.2639s-.0986.2639-.2958.2639zm.9577-.2639c0-.3354-.2236-.5458-.6042-.5458h-.6847v1.893h.3312v-.8014h.2014l.5327.8014h.3527l-.5451-.8194c.2458-.0535.416-.2459.416-.5278z"/><path d="m42.7116 38.3797c-.7923 0-1.3465-.6042-1.3465-1.4049 0-.8014.5542-1.4048 1.3465-1.4048.7917 0 1.3466.6034 1.3466 1.4048 0 .8007-.5549 1.4049-1.3466 1.4049zm0-3.15c-.9534-.0139-1.709.7694-1.6958 1.7451-.0132.9799.7424 1.7632 1.6958 1.7445.9528.0187 1.7091-.7646 1.6959-1.7445.0132-.9757-.7431-1.759-1.6959-1.7451z"/><path d="m20.8694 30.1025h-2.1194v8.6167h2.1194z"/><path d="m9.375 38.7184h2.2229v-5.1285h4.3077v-2.0514h-4.3077v-2.7354h5.3507v-2.0514h-7.5736z"/><path d="m37.7667 29.9744c-1.0938 0-1.966.5979-2.6327 1.7777-.3583-1.1798-1.2986-1.7777-2.4104-1.7777-.9743 0-1.8118.5125-2.4785 1.5208v-1.3847h-2.1201v8.6166h2.1201v-3.1625c0-2.4618.7695-3.7784 1.8632-3.7784.7007 0 1.0598.3937 1.0598 1.1972v5.7437h2.1208v-3.3507c0-2.325.7687-3.5902 1.8625-3.5902.7014 0 1.0604.3937 1.0604 1.1972v5.7437h2.1195v-6.1034c0-1.6577-.9744-2.6493-2.5646-2.6493z"/><path d="m25.5569 26.6235h-2.1194v12.1035h2.1194z"/><path d="m19.0598 26.7719c-.4684.4695-.4687 1.2567.0003 1.7245.4691.4699 1.2552.4702 1.7251.0002.4688-.4681.4691-1.2552-.0004-1.7246-.4695-.4683-1.2557-.4687-1.725-.0001z"/><path d="m57.8681 54.6729c0 1.7646-1.4306 3.1952-3.1952 3.1952h-48.97637c-1.76389 0-3.19514-1.4306-3.19514-3.1952v-48.97568c0-1.76458 1.43125-3.19514 3.19514-3.19514h48.97637c1.7646 0 3.1952 1.43056 3.1952 3.19514zm-3.1952-54.6729h-48.97637c-3.14097 0-5.69653 2.55556-5.69653 5.69722v48.97568c0 3.141 2.55556 5.6965 5.69653 5.6965h48.97637c3.141 0 5.6972-2.5555 5.6972-5.6965v-48.97568c0-3.14166-2.5562-5.69722-5.6972-5.69722z"/></g></svg>