<svg width="929" height="457" viewBox="0 0 929 457" fill="none" xmlns="http://www.w3.org/2000/svg">
<g id="Pixel XL quite black">
<path id="body" fill-rule="evenodd" clip-rule="evenodd" d="M-1.70474e-05 67L-2.75382e-06 394C-1.23293e-06 428.794 28.2061 457 63 457L866 457C900.794 457 929 428.794 929 394L929 67C929 32.206 900.794 3.99996 866 3.99996L474 3.99998L474 2.99998C474 1.34312 472.657 -2.06605e-05 471 -2.05881e-05L359 -1.56924e-05C357.343 -1.562e-05 356 1.34312 356 2.99998L356 3.99998L283 3.99999L283 2.99999C283 1.34313 281.657 -1.23116e-05 280 -1.22392e-05L227 -9.92249e-06C225.343 -9.85006e-06 224 1.34313 224 2.99999L224 3.99999L63 4C28.206 4 -1.85683e-05 32.2061 -1.70474e-05 67ZM63 449C32.6243 449 8 424.376 8 394L7.99998 67C7.99998 36.6243 32.6243 12 63 12L866 12C896.376 12 921 36.6243 921 67L921 394C921 424.376 896.376 449 866 449L63 449Z" fill="#424242"/>
<g id="lines">
<path d="M77 457L89 457L89 127L89 115L89 4L77 4L77 115L-1.49493e-05 115L-1.44248e-05 127L77 127L77 457Z" fill="#353535"/>
<path d="M869 4.07003L869 456.93C873.116 456.737 877.128 456.149 881 455.203L881 5.79659C877.128 4.85079 873.116 4.2629 869 4.07003Z" fill="#353535"/>
</g>
<path id="face" d="M63 449C32.6244 449 8 424.376 8 394L7.99998 67C7.99998 36.6243 32.6243 12 63 12L866 12C896.376 12 921 36.6243 921 67L921 394C921 424.376 896.376 449 866 449L63 449Z" fill="#1D1D1D"/>
<rect id="screen" x="93.5" y="435.5" width="410" height="730" transform="rotate(-90 93.5 435.5)" fill="#303030" stroke="black"/>
<rect id="sensor" x="70" y="246" width="32" height="13" rx="6.5" transform="rotate(-90 70 246)" fill="black"/>
<rect id="earpiece" x="35" y="276" width="92" height="10" rx="5" transform="rotate(-90 35 276)" fill="#424242"/>
<circle id="cam frame" cx="39.5" cy="379.5" r="9.5" transform="rotate(-90 39.5 379.5)" fill="#424242"/>
<circle id="lens" cx="39.5" cy="379.5" r="5.5" transform="rotate(-90 39.5 379.5)" fill="#212121"/>
</g>
</svg>
