<svg fill="none" height="356" viewBox="0 0 362 356" width="362" xmlns="http://www.w3.org/2000/svg"><g clip-rule="evenodd" fill="#fff" fill-rule="evenodd"><path d="m108.941 282.735 2.11 1.365-3.666 13.608-2.274-1.47.942-3.157-3.603-2.33-2.6029 2.083-2.2709-1.467zm-2.197 8.053 1.404-4.637-3.812 3.082z"/><path d="m119.552 296.691c1.872-4.056 5.631-4.982 8.731-3.609 2.695 1.19 3.927 3.364 3.437 5.947l-2.314-.399c.089-1.44-.365-2.708-2.087-3.469-1.911-.846-4.134-.242-5.43 2.565-1.299 2.805-.296 4.837 1.618 5.68 1.717.761 2.993.262 4.039-.756l1.837 1.437c-1.661 2.064-4.144 2.591-6.838 1.4-3.101-1.372-4.871-4.741-2.993-8.796z"/><path d="m136.937 296.739 4.728 1.483c2.595.811 3.452 2.74 2.766 4.844-.549 1.667-1.817 2.667-3.55 2.645l1.738 6.8-2.687-.843-1.692-6.564-1.258-.396-1.793 5.472-2.412-.753zm3.095 6.526c.867.275 1.648.078 1.987-.956.34-1.033-.181-1.634-1.048-1.906l-2.338-.734-.939 2.865z"/><path d="m148.159 308.69 1.702-8.098 2.483.499-1.71 8.133c-.403 1.904.222 3.002 1.901 3.339 1.676.337 2.694-.429 3.093-2.331l1.714-8.136 2.48.497-1.704 8.098c-.735 3.489-3.136 4.699-6.055 4.113-2.919-.587-4.636-2.625-3.904-6.114z"/><path d="m170.026 303.868 2.843.102 2.898 8.43 3.524-8.203 2.84.102-.495 13.322-2.528-.09.303-8.22-2.868 6.91-1.829-.065-2.348-7.098-.306 8.223-2.529-.089z"/><path d="m186.932 304.085 2.521-.132.727 13.287-2.524.129z"/><path d="m194.352 303.64 2.635-.364 6.203 8.008-1.255-8.694 2.501-.347 1.906 13.174-2.634.364-6.208-8.008 1.261 8.695-2.501.347z"/><path d="m209.148 301.175 2.468-.561 3.09 12.987-2.468.561z"/><path d="m218.567 308.999 1.559-1.797c.827 1.3 1.978 2.221 3.404 1.782.964-.297 1.546-.953 1.204-2.024-.362-1.123-2.003-1.215-3.761-1.492-1.457-.227-2.957-.841-3.564-2.725-.618-1.924.364-3.861 2.515-4.522 1.835-.564 3.31-.103 4.412 1.17l-1.556 1.814c-.671-.888-1.396-1.043-2.154-.808-.707.217-1.158.893-.944 1.565.339 1.053 1.771 1.187 3.294 1.375 1.74.222 3.445.636 4.131 2.775.748 2.318-.502 4.317-2.931 5.066-2.356.723-4.581-.365-5.609-2.179z"/><path d="m231.215 296.756-3.496 1.455-.916-2.106 9.324-3.881.918 2.107-3.498 1.452 4.424 10.175-2.329.97z"/><path d="m239.299 290.687 4.35-2.351c2.391-1.293 4.417-.581 5.512 1.355.865 1.535.743 3.127-.462 4.345l6.262 3.434-2.475 1.337-6.055-3.304-1.159.627 2.848 5.038-2.22 1.198zm6.991 2.278c.799-.434 1.189-1.125.654-2.074-.539-.953-1.345-.995-2.146-.564l-2.151 1.163 1.49 2.636z"/><path d="m257.415 289.094-7.665-4.125 2.243-1.507 5.032 2.897-.96-5.632 2.243-1.51 1.189 8.477 3.282 4.672-2.085 1.4z"/><path d="m196.535 91.8861h-31.069c-.923 0-1.671.7312-1.671 1.6346v12.5033c0 .731.497 1.375 1.22 1.572l32.388 8.877c.403.109.804-.185.804-.594v-22.3583c0-.9034-.751-1.6346-1.672-1.6346z"/><path d="m59.2715 104.36 4.6746-6.9474 1.9673 1.2678-3.2686 4.8616 2.4113 1.55 2.6231-3.899 1.9673 1.266-2.6205 3.9 3.164 2.037 3.381-5.021 1.9673 1.267-4.7844 7.108z"/><path d="m66.8633 93.4284 1.7963-2.1337 9.8112 3.9979-5.8893-8.6522 1.7964-2.1337 7.6754 12.0287-1.6458 1.9566z"/><path d="m77.8535 80.9158 6.0653-5.8422 1.6535 1.6446-4.246 4.0903 2.0311 2.0114 3.4014-3.2767 1.6586 1.6446-3.4065 3.2767 2.6639 2.6428 4.3838-4.22 1.6535 1.6446-6.2057 5.9744z"/><path d="m88.5195 71.1059 3.9168-3.0446c2.1536-1.6721 4.2868-1.2953 5.7055.4467 1.1227 1.385 1.2682 2.9872.2807 4.3922l6.8025 2.3883-2.227 1.7319-6.576-2.2959-1.0462.8135 3.6846 4.5395-1.9928 1.5522zm7.3258 1.123c.7247-.5615.9952-1.3102.296-2.1662-.694-.856-1.5004-.7711-2.2225-.2071l-1.9392 1.5023 1.929 2.3758z"/><path d="m107.041 67.2531-7.6094-4.3947 2.3144-1.4549 4.988 3.072-.796-5.7123 2.315-1.455.934 8.5923 3.166 4.814-2.146 1.3501z"/><path d="m114.539 61.4589c-2.135-4.1851-.449-7.4792 2.669-8.9966 3.116-1.5198 6.816-.8534 8.952 3.3317 2.133 4.1825.446 7.4767-2.669 8.9965-3.118 1.5198-6.821.8535-8.952-3.3316zm9.294-4.532c-1.455-2.8574-3.726-3.2991-5.573-2.3982-1.848.8984-2.856 2.9373-1.396 5.7972 1.452 2.8575 3.725 3.2992 5.573 2.3983 1.85-.9009 2.855-2.9373 1.396-5.7973z"/><path d="m128.627 47.5673 2.536-.8759 7.785 6.7306-3.018-8.3752 2.406-.8285 4.58 12.685-2.539.876-7.787-6.7281 3.026 8.3726-2.411.8311z"/><path d="m144.668 42.4994 8.285-1.8717.528 2.246-5.794 1.3102.648 2.7501 4.646-1.0481.531 2.2435-4.647 1.0482.85 3.6136 5.986-1.3501.531 2.2435-8.474 1.9141z"/><path d="m160.889 50.3127 3.248-.4642-1.955 5.5652-1.827.262z"/><path d="m174.271 38.1031 8.5-.1622.043 2.3034-5.942.1123.056 2.8225 4.766-.0898.046 2.3009-4.769.0899.074 3.7034 6.145-.1148.043 2.3034-8.694.1623z"/><path d="m187.637 38.0248 2.817.2396 2.199 10.1695 3.945-9.6529 2.82.2396-5.78 13.007-2.587-.2172z"/><path d="m204.519 39.8137 8.355 1.5922-.45 2.2635-5.845-1.113-.557 2.7751 4.69.8934-.451 2.2635-4.688-.8934-.724 3.641 6.037 1.153-.449 2.2635-8.548-1.6297z"/><path d="m218.743 42.8577 4.784 1.4425c2.626.7911 3.511 2.7227 2.843 4.8539-.531 1.6845-1.796 2.7102-3.542 2.7077l1.827 6.8354-2.717-.8186-1.781-6.6033-1.274-.3818-1.745 5.5377-2.437-.7337zm3.195 6.5459c.883.2646 1.666.0599 1.998-.9832.326-1.0482-.205-1.6471-1.082-1.9141l-2.366-.7113-.911 2.8974z"/><path d="m232.492 55.649-.567-8.6322 2.534 1.0506.21 5.7673 4.388-3.8582 2.532 1.0507-6.747 5.6001-2.289 5.2731-2.35-.9757z"/><path d="m245.684 52.8025 2.34 1.3401-3.126 9.6729 6.599-6.0418 1.896 1.0856-2.157 8.5848 7.094-7.4019 2.342 1.3376-10.048 9.8301-2.235-1.2802 1.931-8.0633-6.241 5.5976-2.235-1.2802z"/><path d="m264.987 64.5281 2.013 1.5373-3.22 4.0279 4.337 3.3141 3.218-4.0278 2.011 1.5397-8.472 10.5963-2.013-1.5398 3.805-4.7516-4.338-3.3141-3.8 4.7541-2.01-1.5373z"/><path d="m278.297 75.2883 6.066 5.8397-1.654 1.6446-4.246-4.0878-2.026 2.014 3.404 3.2767-1.656 1.647-3.401-3.2792-2.662 2.6454 4.387 4.22-1.659 1.6446-6.205-5.9769z"/><path d="m288.424 85.4555 3.182 3.7808c1.748 2.0738 1.401 4.1676-.357 5.5851-1.393 1.123-3.026 1.2952-4.481.3544l-2.324 6.6952-1.812-2.1507 2.233-6.4711-.85-1.0082-4.578 3.686-1.623-1.9266zm-1.018 7.1873c.587.6963 1.358.9483 2.223.2495.862-.6937.76-1.4798.173-2.1786l-1.574-1.8667-2.396 1.9291z"/><path d="m298.165 97.5401 4.695 6.9479-1.968 1.275-3.286-4.864-2.414 1.56 2.638 3.898-1.967 1.275-2.638-3.9-3.167 2.049 3.396 5.021-1.97 1.272-4.804-7.107z"/><path d="m181.006 355.634c-94.2782 0-172.09097-69.13-180.9911445-160.8-.1709605-1.765 1.1533445-3.329 2.9573645-3.494 1.79127-.18 3.40136 1.126 3.56977 2.887 8.57871 88.362 83.58201 154.994 174.46401 154.994 90.821 0 165.82-66.583 174.452-154.881.173-1.765 1.755-3.047 3.577-2.888 1.802.168 3.121 1.735 2.95 3.497-8.954 91.605-86.759 160.685-180.979 160.685z"/><path d="m3.28728 164.194c-.10461 0-.20923-.005-.3164-.015-1.80147-.167-3.123228-1.734-2.9497152-3.496 8.9563152-91.6052 86.7614352-160.683 180.9788352-160.683 94.22 0 172.022 69.0778 180.979 160.683.171 1.762-1.149 3.329-2.95 3.496-1.827.17-3.404-1.123-3.578-2.884-8.632-88.2992-83.63-154.88385-174.451-154.88385-90.8237 0-165.8194 66.58465-174.45425 154.88385-.16075 1.657-1.58713 2.899-3.25847 2.899z"/><path d="m88.3767 152.843c-10.6353 0-14.8787 8.417-14.8787 15.632s4.2434 15.63 14.8787 15.63c6.7645 0 11.434-2.945 14.0773-8.837l-6.1467-2.226c-1.8423 3.127-4.3633 4.689-7.4993 4.689-4.4271 0-7.1293-3.187-7.3156-6.853h21.3316v-3.064c0-3.429-1.107-6.976-3.3195-9.923-2.2123-3.064-6.2107-5.048-11.1278-5.048zm-6.698 12.146c.5486-3.19 3.0721-5.773 6.698-5.773 3.5647 0 5.7796 1.924 6.6395 5.773z"/><path d="m58.5635 169.677c0 5.291-2.0311 7.215-5.7183 7.215-2.891 0-4.7359-1.745-5.4095-5.291l-7.8693 1.622c.9212 6.793 5.8407 10.883 13.2788 10.883 8.913 0 13.7075-4.389 13.7075-15.27v-27.297h-7.9892z"/><path d="m190.982 169.074c-.431-.539-1.166-1.021-2.21-1.56-.982-.541-1.722-.963-2.215-1.143l-2.641-.903-2.215-.784c-1.967-.719-2.947-1.682-2.947-2.942 0-1.625 1.289-2.528 2.825-2.528 2.028 0 3.751.903 5.164 2.645l4.55-4.088c-1.967-2.944-5.596-4.928-9.714-4.928-2.891 0-5.287.841-7.129 2.585-1.845 1.744-2.769 3.786-2.769 6.254 0 4.325 2.337 6.551 6.272 8.175 1.164.48 3.317 1.141 4.363 1.623.554.179 1.169.419 1.723.723 1.168.539 1.658 1.32 1.658 2.281 0 2.166-1.293 3.247-3.809 3.247-2.889 0-4.981-1.682-6.214-4.989l-6.08 3.187c.918 2.164 2.454 4.085 4.608 5.713 2.154 1.624 4.733 2.465 7.686 2.465 3.258 0 5.902-.966 7.928-2.947 2.028-1.984 3.072-4.33 3.072-7.155 0-2.106-.983-3.908-1.906-4.931z"/><path d="m126.43 167.512c-.982-.541-1.72-.963-2.212-1.143l-2.641-.903-2.215-.781c-1.967-.721-2.952-1.682-2.952-2.945 0-1.622 1.291-2.528 2.83-2.528 2.028 0 3.745.906 5.159 2.648l4.552-4.088c-1.967-2.945-5.596-4.931-9.711-4.931-2.891 0-5.29.843-7.132 2.585-1.843 1.745-2.766 3.786-2.766 6.254 0 4.328 2.335 6.554 6.272 8.176 1.166.479 3.317 1.143 4.363 1.622.551.182 1.169.419 1.722.724 1.167.539 1.656 1.322 1.656 2.281 0 2.166-1.288 3.249-3.809 3.249-2.889 0-4.981-1.685-6.208-4.991l-6.086 3.186c.921 2.164 2.46 4.088 4.611 5.713 2.153 1.624 4.733 2.465 7.683 2.465 3.258 0 5.902-.963 7.93-2.944 2.029-1.987 3.073-4.33 3.073-7.155 0-2.109-.983-3.908-1.907-4.934-.428-.539-1.166-1.021-2.212-1.56z"/><path d="m156.314 165.407c0 7.636-3.136 12.326-7.07 12.326-2.95 0-4.427-1.682-4.427-4.994v-19.416h-7.62v21.644c0 5.95 3.81 9.139 9.528 9.139 3.871 0 7.068-1.804 9.589-5.353v4.872h7.622v-30.302h-7.622z"/><path d="m244.08 183.627h7.624v-30.304h-7.624z"/><path d="m210.576 183.623h7.992v-18.035h15.491v-7.215h-15.491v-9.62h19.239v-7.215h-27.231z"/><path d="m244.8 141.572c-1.687 1.65-1.687 4.417 0 6.067s4.514 1.65 6.201 0c1.689-1.65 1.689-4.417 0-6.067-1.687-1.649-4.514-1.649-6.201 0z"/><path d="m260.068 183.624h7.62v-42.565h-7.62z"/><path d="m310.415 152.842c-3.932 0-7.068 2.103-9.467 6.251-1.288-4.148-4.672-6.251-8.665-6.251-3.504 0-6.517 1.804-8.913 5.353v-4.874h-7.622v30.304h7.622v-11.123c0-8.657 2.763-13.287 6.698-13.287 2.521 0 3.812 1.383 3.812 4.21v20.2h7.622v-11.785c0-8.178 2.766-12.625 6.698-12.625 2.524 0 3.815 1.383 3.815 4.21v20.2h7.622v-21.465c0-5.83-3.504-9.318-9.222-9.318z"/><path d="m98.859 204.892h-16.1852v41.973h7.9689v-16.431h8.2163c8.767 0 13.427-5.096 13.427-12.772 0-7.674-4.66-12.77-13.427-12.77zm-.3088 18.35h-7.9075v-11.155h7.9075c3.7408 0 5.6418 1.856 5.6418 5.575 0 3.721-1.901 5.58-5.6418 5.58z"/><path d="m125.649 221.56v-4.919h-7.604v30.224h7.604v-10.733c0-9.174 3.434-13.312 8.277-13.312 1.164 0 2.266.3 3.187.836l1.409-6.893c-1.347-.419-2.572-.598-3.736-.598-3.62 0-6.93 1.979-9.137 5.395z"/><path d="m169.308 220.601c-2.819-2.94-6.619-4.437-11.467-4.437-4.843 0-8.642 1.497-11.459 4.437-2.822 2.937-4.234 6.656-4.234 11.153s1.412 8.273 4.234 11.212c2.817 2.938 6.616 4.378 11.459 4.378 4.848 0 8.648-1.44 11.467-4.378 2.82-2.939 4.231-6.715 4.231-11.212s-1.411-8.216-4.231-11.153zm-5.825 17.749c-1.409 1.739-3.248 2.637-5.642 2.637-2.388 0-4.228-.898-5.639-2.637-1.409-1.8-2.085-4.018-2.085-6.596s.676-4.797 2.085-6.536c1.411-1.8 3.251-2.698 5.639-2.698 2.394 0 4.233.898 5.642 2.698 1.413 1.739 2.085 3.958 2.085 6.536s-.672 4.796-2.085 6.596z"/><path d="m180.71 244.286c0 5.338-2.329 7.555-7.175 8.755l1.84 6.533c8.829-1.976 12.937-6.773 12.937-16.188v-26.743h-7.602z"/><path d="m209.074 216.165c-10.608 0-14.836 8.392-14.836 15.587 0 7.197 4.228 15.592 14.836 15.592 6.744 0 11.405-2.937 14.039-8.814l-6.129-2.219c-1.84 3.117-4.353 4.677-7.482 4.677-4.412 0-7.111-3.177-7.295-6.835h21.273v-3.057c0-3.419-1.102-6.956-3.309-9.895-2.207-3.06-6.193-5.036-11.097-5.036zm-6.683 12.113c.551-3.179 3.067-5.76 6.683-5.76 3.557 0 5.764 1.922 6.621 5.76z"/><path d="m243.738 222.519c3.123 0 5.578 1.68 7.229 4.976l6.807-2.695c-2.393-5.76-7.05-8.635-14.036-8.635-4.846 0-8.525 1.498-11.161 4.438-2.636 2.937-3.925 6.655-3.925 11.15 0 4.497 1.289 8.215 3.925 11.153 2.636 2.937 6.315 4.437 11.161 4.437 6.986 0 11.643-2.878 14.036-8.633l-6.807-2.7c-1.651 3.302-4.106 4.979-7.229 4.979-4.662 0-7.114-3.718-7.114-9.236 0-5.515 2.452-9.234 7.114-9.234z"/><path d="m281.429 240.267c-.921.48-1.901.722-2.942.722-2.697 0-4.049-1.32-4.049-4.919v-13.069h8.158v-6.357h-8.158v-12.231l-7.596 4.677v7.554h-4.787v6.357h4.787v13.191c0 7.372 4.225 11.153 11.339 11.153 1.779 0 3.432-.362 5.027-1.083z"/><path d="m181.415 204.925c-1.684 1.644-1.684 4.404 0 6.046 1.685 1.65 4.504 1.65 6.186 0 1.681-1.642 1.681-4.402 0-6.046-1.682-1.645-4.501-1.645-6.186 0z"/><path d="m292.211 204.764c3.416-.047 6.129 2.7 6.08 6.119.049 3.439-2.664 6.184-6.08 6.122-3.42.062-6.129-2.683-6.083-6.122-.046-3.419 2.663-6.166 6.083-6.119zm0 1.193c-2.843 0-4.831 2.119-4.831 4.926 0 2.81 1.988 4.929 4.831 4.929 2.84 0 4.83-2.119 4.83-4.929 0-2.807-1.99-4.926-4.83-4.926zm-2.297 1.585h2.455c1.365 0 2.169.736 2.169 1.914 0 .988-.613 1.662-1.493 1.852l1.957 2.87h-1.268l-1.909-2.808h-.722v2.808h-1.189zm2.394 2.84c.704 0 1.056-.347 1.056-.926 0-.582-.352-.926-1.056-.926h-1.205v1.852z"/></g></svg>