<svg fill="none" height="41" viewBox="0 0 18 41" width="18" xmlns="http://www.w3.org/2000/svg"><g fill="#ef3340"><path d="m9 0c-4.96698 0-9 4.03302-9 9v8.5755c0 4.967 4.03302 9 9 9 4.967 0 9-4.033 9-9v-8.5755c0-4.96698-4.033-9-9-9zm6.4528 17.5755c0 3.566-2.8868 6.4528-6.4528 6.4528-3.56604 0-6.45283-2.8868-6.45283-6.4528v-8.5755c0-3.56604 2.88679-6.45283 6.45283-6.45283 3.566 0 6.4528 2.88679 6.4528 6.45283z"/><path d="m9.00015 5.34912c-.7217 0-1.27359.55189-1.27359 1.27359v3.43869c0 .7217.55189 1.2736 1.27359 1.2736s1.27355-.5519 1.27355-1.2736v-3.43869c0-.67925-.55185-1.27359-1.27355-1.27359z"/><path d="m11.6319 28.4857-2.63212 2.6746-2.63208-2.6321c-.50943-.5095-1.31603-.5095-1.82547 0-.50943.5094-.50943 1.316 0 1.8255l3.56604 3.566c.25472.2547.59434.3821.89151.3821s.63679-.1274.89151-.3821l3.56601-3.566c.5095-.5095.5095-1.3161 0-1.8255-.5094-.5095-1.316-.5095-1.8254-.0425z"/><path d="m11.6319 34.5991-2.63212 2.6321-2.63208-2.6321c-.50943-.5094-1.31603-.5094-1.82547 0-.50943.5095-.50943 1.3161 0 1.8255l3.56604 3.566c.25472.2547.59434.3821.89151.3821s.63679-.1274.89151-.3821l3.56601-3.566c.5095-.5094.5095-1.316 0-1.8255-.5094-.5094-1.316-.5094-1.8254 0z"/></g></svg>